<?xml version="1.0" encoding="UTF-8" standalone="no"?>
<svg width="460px" height="240px" viewBox="0 0 460 240" version="1.1" xmlns="http://www.w3.org/2000/svg" xmlns:xlink="http://www.w3.org/1999/xlink" xmlns:sketch="http://www.bohemiancoding.com/sketch/ns">
    <!-- Generator: Sketch 3.3.3 (12072) - http://www.bohemiancoding.com/sketch -->
    <title>Did you know generic</title>
    <desc>Created with Sketch.</desc>
    <defs>
        <ellipse id="path-1" cx="97.5" cy="99" rx="97.5" ry="99"></ellipse>
    </defs>
    <g id="Did-you-know-2" stroke="none" stroke-width="1" fill="none" fill-rule="evenodd" sketch:type="MSPage">
        <g id="Did-you-know-generic" sketch:type="MSArtboardGroup">
            <g id="did_you_know_generic" sketch:type="MSLayerGroup" transform="translate(133.000000, 21.000000)">
                <g id="Path-1186">
                    <mask id="mask-2" sketch:name="Mask" fill="white">
                        <use xlink:href="#path-1"></use>
                    </mask>
                    <use id="Mask" fill="#3498DB" sketch:type="MSShapeGroup" xlink:href="#path-1"></use>
                    <path d="M91.1671704,59.2041367 L63.9496251,75.0846448 L89.599253,104.195664 L84.8510208,120.840567 C84.8510208,120.840567 93.7097457,128.411235 98.1391081,132.196569 C98.959218,132.897435 84.8510208,149.80761 84.8510208,149.80761 L145.156767,210.817362 L204.759174,192.470478 L212.074732,147.76273 L124.504181,58.4119197 L91.1671704,59.2041367 Z" fill="#2972A3" sketch:type="MSShapeGroup" mask="url(#mask-2)"></path>
                </g>
                <path d="M84.5699463,120.381629 C84.6161814,113.77 85.5408709,109.019408 87.3440425,106.12971 C89.1472141,103.240012 92.9153238,99.5990467 98.6484847,95.2067057 C101.977417,92.4325955 104.612782,89.5313822 106.554659,86.5029787 C108.496536,83.4745751 109.46746,80.0185481 109.46746,76.134794 C109.46746,71.8349233 108.369391,68.4944825 106.173221,66.1133713 C103.97705,63.7322601 100.752196,62.5417224 96.4985601,62.5417224 C92.9846873,62.5417224 90.0603567,63.5357636 87.7254807,65.5238758 C85.3906047,67.5119881 84.200067,70.517229 84.1538318,74.5396886 L63.8335768,74.5396886 C63.9260472,65.2926549 66.9428467,58.3343664 72.8840658,53.6646144 C78.825285,48.9948624 86.6967044,46.6600214 96.4985601,46.6600214 C107.086414,46.6600214 115.269916,49.2375934 121.049312,54.3928147 C126.828708,59.548036 129.718363,66.7259382 129.718363,75.9267368 C129.718363,81.8910735 128.030804,87.3236243 124.655637,92.2245522 C121.28047,97.1254801 116.934429,101.3097 111.617385,104.777338 C108.704569,106.996626 106.832073,109.169646 105.99984,111.296464 C105.167607,113.423282 104.751496,116.45164 104.751496,120.381629 L84.5699463,120.381629 Z M104.890201,149.093525 L84.5005939,149.093525 L84.5005939,131.755424 L104.890201,131.755424 L104.890201,149.093525 Z" id="?" fill="#FFFFFF" sketch:type="MSShapeGroup"></path>
            </g>
        </g>
    </g>
</svg>